<!-- icon666.com - MILLIONS OF FREE VECTOR ICONS --><svg version="1.1" id="Capa_1" xmlns="http://www.w3.org/2000/svg" xmlns:xlink="http://www.w3.org/1999/xlink" x="0px" y="0px" viewBox="0 0 511.991 511.991" style="enable-background:new 0 0 511.991 511.991;" xml:space="preserve"><g><g><g><path d="M261.276,282.117c5.866-6.896,5.041-17.236-1.837-23.111c-6.896-5.866-17.227-5.032-23.102,1.837 c-38.989,45.716-60.298,149.964-47.509,232.388c1.26,8.094,8.227,13.872,16.171,13.872c0.834,0,1.686-0.062,2.538-0.195 c8.937-1.385,15.061-9.754,13.677-18.7C208.718,407.666,231.837,316.633,261.276,282.117z"></path><path d="M264.596,224.695c-5.671,7.056-4.553,17.369,2.494,23.04c3.026,2.441,6.656,3.621,10.26,3.621 c4.784,0,9.532-2.095,12.78-6.115c0.55-0.692,56.198-68.614,144.55-70.966c9.053-0.24,16.188-7.766,15.949-16.818 c-0.249-9.044-7.455-16.144-16.818-15.94C330.467,144.268,267.24,221.411,264.596,224.695z"></path><path d="M377.266,399.341c7.819-4.553,10.455-14.591,5.884-22.41c-12.363-21.185-47.367-72.475-105.126-91.352 c-8.573-2.787-17.848,1.873-20.661,10.49c-2.805,8.6,1.89,17.848,10.49,20.661c47.074,15.381,76.522,58.789,87.012,76.726 c3.044,5.219,8.529,8.13,14.165,8.13C371.834,401.586,374.683,400.867,377.266,399.341z"></path><path d="M70.54,184.819c87.394,3.053,151.677,54.6,152.316,55.124c3.044,2.485,6.71,3.701,10.357,3.701 c4.739,0,9.443-2.05,12.683-6c5.742-6.994,4.722-17.324-2.281-23.058c-2.938-2.405-73.131-59.055-171.93-62.508 c-9.266-0.462-16.623,6.754-16.943,15.798S61.496,184.508,70.54,184.819z"></path><path d="M78.173,308.912c-5.556,7.145-4.278,17.44,2.867,22.987c2.991,2.334,6.532,3.461,10.047,3.461 c4.881,0,9.718-2.174,12.94-6.319c33.965-43.657,104.106-51.742,105.171-51.867c8.999-0.941,15.523-8.991,14.582-17.99 c-0.932-8.999-9.053-15.585-17.99-14.6C202.345,244.939,120.889,254.001,78.173,308.912z"></path><path d="M238.627,202.516c1.145,8.192,8.165,14.112,16.206,14.112c0.763,0,1.527-0.044,2.299-0.16 c8.955-1.251,15.212-9.532,13.952-18.496c-5.077-36.255,15.345-91.627,37.604-120.587c5.511-7.18,4.162-17.466-3.009-22.978 c-7.18-5.503-17.457-4.162-22.978,3.009C255.933,92.251,232.13,156.054,238.627,202.516z"></path><path d="M139.491,244.256c2.742,1.775,5.831,2.627,8.875,2.627c5.37,0,10.641-2.645,13.792-7.482 c4.917-7.597,2.734-17.741-4.864-22.658c-12.47-8.068-36.486-10.712-51.405-5.689c-8.582,2.893-13.189,12.186-10.295,20.759 c2.884,8.573,12.186,13.197,20.759,10.295C122.69,239.969,135.959,241.966,139.491,244.256z"></path><path d="M253.448,359.003c2.6,2.13,5.547,6.328,8.103,11.511c2.849,5.787,8.662,9.15,14.706,9.15 c2.423,0,4.908-0.559,7.233-1.704c8.112-3.994,11.458-13.819,7.464-21.931c-4.739-9.63-10.366-17.156-16.721-22.374 c-6.985-5.724-17.315-4.722-23.058,2.281C245.434,342.93,246.455,353.27,253.448,359.003z"></path><path d="M291.603,251.001c-8.893,1.677-14.751,10.242-13.082,19.135c1.669,8.893,10.18,14.724,19.126,13.073 c14.458-2.725,57.946-0.346,79.735,21.638c3.213,3.222,7.42,4.855,11.644,4.855c4.171,0,8.334-1.589,11.538-4.766 c6.435-6.372,6.47-16.739,0.107-23.173C368.622,249.43,312.344,247.096,291.603,251.001z"></path><path d="M143.228,116.054c-2.245,8.769,3.035,17.697,11.795,19.951c17.786,4.562,32.456,15.851,46.16,35.51 c3.186,4.571,8.281,7.02,13.455,7.02c3.239,0,6.505-0.95,9.354-2.955c7.42-5.174,9.248-15.39,4.074-22.809 c-18.194-26.102-39.424-41.971-64.886-48.512C154.428,102.031,145.482,107.285,143.228,116.054z"></path><path d="M191.526,322.145c7.295-5.352,8.857-15.62,3.497-22.907c-5.361-7.295-15.62-8.857-22.907-3.497 c-2.884,2.121-17.706,13.615-25.987,31.445c-3.816,8.21-0.248,17.946,7.952,21.762c2.237,1.03,4.58,1.535,6.896,1.535 c6.168,0,12.088-3.515,14.866-9.488C179.918,332.218,187.621,325.02,191.526,322.145z"></path><path d="M298.517,177.852c5.059,0,10.056-2.334,13.259-6.763c4.633-6.372,10.056-11.724,15.691-15.469 c7.526-5.014,9.559-15.185,4.544-22.72c-5.023-7.535-15.185-9.567-22.729-4.544c-8.804,5.884-17.111,13.996-24.007,23.466 c-5.325,7.322-3.71,17.564,3.612,22.889C291.789,176.831,295.171,177.852,298.517,177.852z"></path><path d="M206.969,101.286c2.734,3.248,3.852,5.92,4.686,14.422c0.825,8.467,7.961,14.795,16.286,14.795 c0.541,0,1.074-0.027,1.624-0.089c9.008-0.888,15.594-8.893,14.715-17.901c-1.189-12.106-3.728-22.232-12.248-32.35 c-5.84-6.923-16.179-7.81-23.093-1.97C202.017,84.032,201.138,94.363,206.969,101.286z"></path><path d="M346.123,243.99c1.172,0,2.352-0.124,3.532-0.399c7.624-1.677,15.221-2.05,21.984-1.118 c8.928,1.26,17.227-5.006,18.487-13.961c1.26-8.955-4.997-17.236-13.961-18.487c-10.57-1.482-22.188-0.932-33.557,1.571 c-8.831,1.953-14.422,10.686-12.47,19.525C331.834,238.78,338.597,243.99,346.123,243.99z"></path><path d="M37.897,182.547c4.171-4.083,6.479-9.851,6.479-15.62c0-5.858-2.307-11.627-6.479-15.709 c-8.254-8.254-23.164-8.254-31.418,0C2.396,155.3,0,161.069,0,166.927c0,5.769,2.396,11.538,6.479,15.62 c4.171,4.171,9.851,6.568,15.709,6.568S33.726,186.718,37.897,182.547z"></path><path d="M255.428,56.342c5.858,0,11.538-2.396,15.709-6.479c4.162-4.171,6.47-9.94,6.47-15.709c0-5.858-2.299-11.538-6.47-15.709 c-8.254-8.254-23.164-8.254-31.418,0c-4.083,4.171-6.479,9.851-6.479,15.709c0,5.769,2.396,11.538,6.479,15.709 C243.89,53.946,249.57,56.342,255.428,56.342z"></path><path d="M417.666,213.699c-4.083,4.171-6.479,9.851-6.479,15.709s2.387,11.538,6.479,15.709 c4.162,4.083,9.851,6.479,15.709,6.479s11.538-2.396,15.7-6.479c4.083-4.171,6.479-9.852,6.479-15.709 s-2.387-11.538-6.479-15.709C440.821,205.445,425.92,205.445,417.666,213.699z"></path><path d="M193.301,67.88c5.769,0,11.538-2.308,15.62-6.479c4.171-4.083,6.568-9.851,6.568-15.62 c0-5.858-2.396-11.626-6.568-15.709c-8.254-8.254-23.164-8.254-31.329,0c-4.171,4.083-6.568,9.851-6.568,15.709 c0,5.769,2.396,11.538,6.568,15.62C181.675,65.572,187.444,67.88,193.301,67.88z"></path><path d="M327.13,48.975c5.866,0,11.635-2.396,15.709-6.479c4.162-4.171,6.47-9.94,6.47-15.709c0-5.858-2.299-11.538-6.47-15.709 c-8.254-8.254-23.164-8.254-31.329,0c-4.162,4.171-6.568,9.851-6.568,15.709s2.396,11.538,6.479,15.709 C315.601,46.579,321.272,48.975,327.13,48.975z"></path><path d="M505.521,147.934c-8.263-8.254-23.164-8.254-31.418,0c-4.074,4.083-6.479,9.851-6.479,15.709 c0,5.769,2.396,11.538,6.479,15.62c4.18,4.171,9.852,6.568,15.709,6.568c5.866,0,11.547-2.396,15.709-6.568 c4.162-4.083,6.47-9.852,6.47-15.62C511.991,157.785,509.692,152.016,505.521,147.934z"></path><path d="M75.173,341.235c-8.254-8.263-23.164-8.263-31.418,0c-4.171,4.171-6.479,9.86-6.479,15.718s2.308,11.618,6.479,15.709 c4.083,4.074,9.851,6.479,15.709,6.479s11.538-2.405,15.709-6.479c4.083-4.18,6.479-9.86,6.479-15.709 C81.652,351.175,79.255,345.406,75.173,341.235z"></path><path d="M374.435,415.866c-4.162,4.18-6.47,9.869-6.47,15.718c0,5.866,2.299,11.538,6.47,15.718 c4.18,4.065,9.86,6.47,15.718,6.47s11.538-2.396,15.709-6.47c4.065-4.18,6.47-9.86,6.47-15.718s-2.396-11.538-6.47-15.718 C397.519,407.612,382.698,407.612,374.435,415.866z"></path><path d="M346.86,78.876c-9.053,0-16.384,7.34-16.384,16.384c0,9.044,7.331,16.384,16.384,16.384h13.916v13.881 c0,9.044,7.331,16.384,16.384,16.384s16.384-7.34,16.384-16.392v-13.872h13.863c9.053,0,16.384-7.34,16.384-16.384 c0-9.044-7.331-16.384-16.384-16.384h-13.863V64.995c0-9.044-7.331-16.384-16.384-16.384s-16.384,7.331-16.384,16.384v13.881 H346.86z"></path><path d="M71.507,103.167h13.916v13.881c0,9.044,7.331,16.384,16.384,16.384c9.044,0,16.384-7.34,16.384-16.392v-13.872h13.863 c9.044,0,16.384-7.349,16.384-16.392s-7.331-16.384-16.384-16.384h-13.863V56.519c0-9.044-7.34-16.384-16.384-16.384 s-16.384,7.331-16.384,16.384v13.872H71.507c-9.053,0-16.384,7.349-16.384,16.392C55.124,95.827,62.455,103.167,71.507,103.167z"></path><path d="M466.719,318.923h-13.854v-13.872c0-9.053-7.34-16.384-16.392-16.384c-9.053,0-16.392,7.331-16.392,16.384v13.872 h-13.907c-9.053,0-16.392,7.34-16.392,16.392s7.34,16.384,16.392,16.384h13.907v13.881c0,9.053,7.34,16.384,16.392,16.384 c9.044,0,16.384-7.331,16.392-16.384v-13.881h13.854c9.044,0,16.392-7.331,16.392-16.384S475.772,318.923,466.719,318.923z"></path><path d="M40.355,290.487c0,9.053,7.331,16.392,16.384,16.392c9.044,0,16.384-7.34,16.384-16.392v-13.872h13.863 c9.044,0,16.384-7.34,16.384-16.384s-7.331-16.384-16.384-16.384H73.123v-13.881c0-9.044-7.34-16.384-16.384-16.384 c-9.044,0-16.384,7.331-16.384,16.384v13.881H26.439c-9.044,0-16.384,7.331-16.384,16.384c0,9.044,7.331,16.384,16.384,16.384 h13.916V290.487z"></path><path d="M156.638,388.753h-13.863V374.89c0-9.053-7.34-16.392-16.384-16.392c-9.044,0-16.384,7.34-16.384,16.392v13.863H96.091 c-9.044,0-16.384,7.331-16.384,16.384c0,9.053,7.331,16.384,16.384,16.384h13.916v13.89c0,9.053,7.331,16.384,16.384,16.384 s16.384-7.34,16.384-16.384v-13.89h13.863c9.053,0,16.384-7.331,16.384-16.384C173.022,396.084,165.691,388.753,156.638,388.753z "></path><path d="M317.918,420.135h-13.854v-13.863c0-9.053-7.34-16.384-16.392-16.384c-9.053,0-16.392,7.331-16.392,16.384v13.863 h-13.907c-9.044,0-16.384,7.34-16.384,16.392c0,9.053,7.331,16.384,16.384,16.384h13.907v13.89 c0,9.053,7.34,16.384,16.392,16.384c9.053,0,16.392-7.34,16.392-16.384v-13.89h13.854c9.053,0,16.392-7.331,16.392-16.384 C334.31,427.475,326.97,420.135,317.918,420.135z"></path></g></g></g></svg>